<?xml version="1.0" encoding="UTF-8" standalone="no"?>
<!-- Created with Inkscape (http://www.inkscape.org/) -->

<svg
   xmlns:dc="http://purl.org/dc/elements/1.1/"
   xmlns:cc="http://creativecommons.org/ns#"
   xmlns:rdf="http://www.w3.org/1999/02/22-rdf-syntax-ns#"
   xmlns:svg="http://www.w3.org/2000/svg"
   xmlns="http://www.w3.org/2000/svg"
   xmlns:sodipodi="http://sodipodi.sourceforge.net/DTD/sodipodi-0.dtd"
   xmlns:inkscape="http://www.inkscape.org/namespaces/inkscape"
   width="256"
   height="256"
   viewBox="0 0 256 256"
   version="1.1"
   id="svg8"
   inkscape:version="0.92.3 (2405546, 2018-03-11)"
   sodipodi:docname="polywonks.svg"
   enable-background="new"
   inkscape:export-filename="C:\urraka\projects\soldat\polywonks\icon\polywonks-black-16.png"
   inkscape:export-xdpi="6"
   inkscape:export-ydpi="6">
  <defs
     id="defs2" />
  <sodipodi:namedview
     id="base"
     pagecolor="#ffffff"
     bordercolor="#666666"
     borderopacity="1.0"
     inkscape:pageopacity="0.0"
     inkscape:pageshadow="2"
     inkscape:zoom="2.8"
     inkscape:cx="134.22887"
     inkscape:cy="117.53186"
     inkscape:document-units="px"
     inkscape:current-layer="white"
     showgrid="true"
     units="px"
     inkscape:showpageshadow="false"
     borderlayer="true"
     inkscape:pagecheckerboard="true"
     showborder="true"
     inkscape:window-width="1920"
     inkscape:window-height="1028"
     inkscape:window-x="-8"
     inkscape:window-y="-8"
     inkscape:window-maximized="1"
     showguides="true"
     inkscape:guide-bbox="true"
     inkscape:snap-intersection-paths="true"
     inkscape:snap-grids="true"
     inkscape:object-paths="true"
     inkscape:snap-smooth-nodes="true"
     inkscape:snap-midpoints="true"
     inkscape:snap-nodes="true">
    <inkscape:grid
       type="xygrid"
       id="grid3713"
       spacingx="16"
       spacingy="16"
       empspacing="1"
       dotted="false"
       units="px" />
  </sodipodi:namedview>
  <metadata
     id="metadata5">
    <rdf:RDF>
      <cc:Work
         rdf:about="">
        <dc:format>image/svg+xml</dc:format>
        <dc:type
           rdf:resource="http://purl.org/dc/dcmitype/StillImage" />
        <dc:title />
      </cc:Work>
    </rdf:RDF>
  </metadata>
  <g
     inkscape:groupmode="layer"
     id="black"
     inkscape:label="black"
     style="display:inline">
    <path
       style="fill:#000000;fill-opacity:1;stroke:none;stroke-width:64;stroke-linecap:round;stroke-linejoin:round;stroke-miterlimit:4;stroke-dasharray:none;stroke-opacity:1"
       d="m 64,32 c -0.729108,0 -1.457953,0.04444 -2.185547,0.109375 C 45.664085,33.222284 32.888838,46.221408 32.056641,62.388672 32.021174,62.92526 32,63.462806 32,64 V 84.6875 L 84.6875,32 Z M 107.3125,32 32,107.3125 v 25.375 L 132.6875,32 Z m 48,0 L 32,155.3125 V 192 c 0,0.53719 0.02117,1.07474 0.05664,1.61133 0.832201,16.16726 13.607446,29.16639 29.757812,30.27929 C 62.542048,223.95556 63.270892,224 64,224 H 164.6875 L 90.34375,149.65625 c -5.146289,-5.00513 -1.606565,-13.73099 5.572266,-13.73633 2.162333,-9.4e-4 4.232974,0.87339 5.740234,2.42383 L 187.3125,224 h 25.375 l -98.34375,-98.34375 c -5.14629,-5.00513 -1.60656,-13.731 5.57227,-13.73633 2.16233,-9.4e-4 4.23297,0.87339 5.74023,2.42383 L 224,212.6875 v -25.375 l -85.65625,-85.65625 c -5.14629,-5.005134 -1.60656,-13.730993 5.57227,-13.736328 2.16233,-9.43e-4 4.23297,0.873391 5.74023,2.423828 L 224,164.6875 V 64 c 0,-0.537194 -0.0212,-1.07474 -0.0566,-1.611328 C 223.11108,46.221409 210.33592,33.222285 194.18555,32.109375 193.45795,32.044439 192.72911,32 192,32 Z"
       id="path19"
       inkscape:connector-curvature="0"
       sodipodi:nodetypes="sccsccscccccccsccscccccccccccccccsccsc" />
  </g>
  <g
     style="display:inline"
     inkscape:label="white"
     id="white"
     inkscape:groupmode="layer">
    <path
       sodipodi:nodetypes="sccsccscccccccsccscccccccccccccccsccsc"
       inkscape:connector-curvature="0"
       id="path869"
       d="m 64,32 c -0.729108,0 -1.457953,0.04444 -2.185547,0.109375 C 45.664085,33.222284 32.888838,46.221408 32.056641,62.388672 32.021174,62.92526 32,63.462806 32,64 V 84.6875 L 84.6875,32 Z M 107.3125,32 32,107.3125 v 25.375 L 132.6875,32 Z m 48,0 L 32,155.3125 V 192 c 0,0.53719 0.02117,1.07474 0.05664,1.61133 0.832201,16.16726 13.607446,29.16639 29.757812,30.27929 C 62.542048,223.95556 63.270892,224 64,224 H 164.6875 L 90.34375,149.65625 c -5.146289,-5.00513 -1.606565,-13.73099 5.572266,-13.73633 2.162333,-9.4e-4 4.232974,0.87339 5.740234,2.42383 L 187.3125,224 h 25.375 l -98.34375,-98.34375 c -5.14629,-5.00513 -1.60656,-13.731 5.57227,-13.73633 2.16233,-9.4e-4 4.23297,0.87339 5.74023,2.42383 L 224,212.6875 v -25.375 l -85.65625,-85.65625 c -5.14629,-5.005134 -1.60656,-13.730993 5.57227,-13.736328 2.16233,-9.43e-4 4.23297,0.873391 5.74023,2.423828 L 224,164.6875 V 64 c 0,-0.537194 -0.0212,-1.07474 -0.0566,-1.611328 C 223.11108,46.221409 210.33592,33.222285 194.18555,32.109375 193.45795,32.044439 192.72911,32 192,32 Z"
       style="fill:#ffffff;fill-opacity:1;stroke:none;stroke-width:64;stroke-linecap:round;stroke-linejoin:round;stroke-miterlimit:4;stroke-dasharray:none;stroke-opacity:1" />
  </g>
</svg>
